# xmcd
#
# Track frame offsets: 
#        150
#        21883
#        39121
#        55008
#        77928
#        93008
#        112323
#        133190
#        145343
#        162428
#        182316
#        201646
#
# Disc length: 2898 seconds
#
# Revision: 0
# Processed by: cddbd v1.5.2PL0 Copyright (c) Steve Scherf et al.
# Submitted via: ExactAudioCopyFreeDBPlugin 1.0
#
DISCID=a30b500c
DTITLE=Dave Murphy - Chasing Ghosts
DYEAR=2002
DGENRE=Folk/Rock
TTITLE0=Red
TTITLE1=The Ballad of Rue Laffayette
TTITLE2=Quarter Moon Missing (with Steve Forbert)
TTITLE3=I Know
TTITLE4=My Garden State
TTITLE5=Take a Ride with Me
TTITLE6=Chasing Ghosts
TTITLE7=Marshmallow Soup
TTITLE8=Just Before Daylight
TTITLE9=Perfect Movie Scene
TTITLE10=Fire in the Night
TTITLE11=Fade Away to Blue
EXTD=
EXTT0=
EXTT1=
EXTT2=
EXTT3=
EXTT4=
EXTT5=
EXTT6=
EXTT7=
EXTT8=
EXTT9=
EXTT10=
EXTT11=
PLAYORDER=
